<?xml version="1.0"?>
<svg xmlns="http://www.w3.org/2000/svg" id="Layer_1" data-name="Layer 1" viewBox="0 0 72 72">
  <defs>
    <style>.cls-1{fill:#444e69;}</style>
  </defs>
  <path class="cls-1" d="M27.6,32.85V19.15H25.09V15.71h6.3V32.85Z"/>
  <path class="cls-1" d="M34.07,24.26c0-1.84,0-3,.07-3.56a5.55,5.55,0,0,1,2.07-3.76,6.43,6.43,0,0,1,4.28-1.5,6.35,6.35,0,0,1,4.25,1.5,5.57,5.57,0,0,1,2.09,3.76c.05.52.08,1.72.08,3.56s0,3.08-.08,3.6a5.59,5.59,0,0,1-2.09,3.76,6.35,6.35,0,0,1-4.25,1.5,6.43,6.43,0,0,1-4.28-1.5,5.57,5.57,0,0,1-2.07-3.76C34.09,27.34,34.07,26.13,34.07,24.26Zm6.42,5.41a2.49,2.49,0,0,0,2.56-2.23c0-.4.07-1.45.07-3.18s0-2.65,0-3a2.59,2.59,0,0,0-5.16,0c0,.39,0,1.4,0,3s0,2.78.07,3.18A2.48,2.48,0,0,0,40.49,29.67Z"/>
  <path class="cls-1" d="M36,48.05A23.78,23.78,0,1,1,59.78,24.28,23.8,23.8,0,0,1,36,48.05ZM36,2.42A21.86,21.86,0,1,0,57.86,24.28,21.89,21.89,0,0,0,36,2.42Z"/>
  <path class="cls-1" d="M51.58,71.5a.94.94,0,0,1-.53-.16l-15-10-15,10a1,1,0,0,1-1.49-.8V41.24a1,1,0,0,1,1.92,0v27.5l14.09-9.37a.93.93,0,0,1,1.06,0l14.09,9.37V41.24a1,1,0,0,1,1.92,0v29.3a1,1,0,0,1-.5.85A1,1,0,0,1,51.58,71.5Z"/>
</svg>
