<?xml version="1.0"?>
<svg xmlns="http://www.w3.org/2000/svg" id="Layer_1" data-name="Layer 1" viewBox="0 0 72 72">
  <defs>
    <style>.cls-1{fill:#123d76;}</style>
  </defs>
  <path class="cls-1" d="M70.54,44.42H48.15a1,1,0,0,1,0-1.92H69.58V18.29a.79.79,0,0,0-.51-.75.8.8,0,0,0-.89.21l-2.93,3.17a8.4,8.4,0,0,1-12.58-.27,6.47,6.47,0,0,0-9.58-.33L42,21.42a8.4,8.4,0,0,1-12.26-.24l-.55-.61a6.5,6.5,0,0,0-4.82-2.14h0a6.47,6.47,0,0,0-4.82,2.15l-.35.39A8.41,8.41,0,0,1,13,23.76h0A8.43,8.43,0,0,1,6.76,21L3.82,17.79a.79.79,0,0,0-.89-.2.78.78,0,0,0-.51.75V42.5H23.9a1,1,0,0,1,0,1.92H1.46a1,1,0,0,1-1-1V18.34A2.7,2.7,0,0,1,2.24,15.8a2.69,2.69,0,0,1,3,.7l2.94,3.23A6.51,6.51,0,0,0,13,21.84h0a6.5,6.5,0,0,0,4.8-2.15l.36-.4a8.37,8.37,0,0,1,6.24-2.78h0a8.39,8.39,0,0,1,6.24,2.78l.55.61A6.4,6.4,0,0,0,35.87,22a6.27,6.27,0,0,0,4.77-2L41.71,19a8.41,8.41,0,0,1,12.43.43,6.47,6.47,0,0,0,4.8,2.29,6.54,6.54,0,0,0,4.9-2.08l2.93-3.18a2.73,2.73,0,0,1,4.73,1.85V43.46A1,1,0,0,1,70.54,44.42Z"/>
  <path class="cls-1" d="M36,56.43a13,13,0,1,1,13-13A13,13,0,0,1,36,56.43Zm0-24A11.06,11.06,0,1,0,47.06,43.46,11.07,11.07,0,0,0,36,32.4Z"/>
  <path class="cls-1" d="M35.22,48.91a.93.93,0,0,1-.6-.21l-4.28-3.4a1,1,0,1,1,1.19-1.5l3.52,2.8,5.26-6.85a1,1,0,0,1,1.34-.18,1,1,0,0,1,.18,1.35L36,48.54a1,1,0,0,1-.65.36Z"/>
</svg>
