<?xml version="1.0"?>
<svg xmlns="http://www.w3.org/2000/svg" id="Layer_1" data-name="Layer 1" viewBox="0 0 72 72">
  <defs>
    <style>.cls-1{fill:#123d76;}</style>
  </defs>
  <path class="cls-1" d="M34.16,69.63A1.88,1.88,0,0,1,36,67.75h0a1.88,1.88,0,0,1,1.88,1.87h0A1.88,1.88,0,0,1,36,71.5h0A1.88,1.88,0,0,1,34.16,69.63ZM18.29,66.77a1.87,1.87,0,0,1-.69-2.56h0a1.89,1.89,0,0,1,2.56-.68h0a1.88,1.88,0,0,1,.68,2.55h0a1.88,1.88,0,0,1-1.63.94h0A1.82,1.82,0,0,1,18.29,66.77Zm32.93-.72a1.87,1.87,0,0,1,.68-2.56h0a1.88,1.88,0,0,1,2.55.69h0a1.88,1.88,0,0,1-.68,2.56h0a2,2,0,0,1-.94.25h0A1.86,1.86,0,0,1,51.22,66.05ZM5.28,53.81A1.88,1.88,0,0,1,6,51.25H6a1.87,1.87,0,0,1,2.56.68h0a1.87,1.87,0,0,1-.69,2.55h0a1.86,1.86,0,0,1-.93.25h0A1.87,1.87,0,0,1,5.28,53.81Zm58.92.61a1.88,1.88,0,0,1-.69-2.55h0a1.88,1.88,0,0,1,2.56-.68h0a1.86,1.86,0,0,1,.68,2.55h0a1.88,1.88,0,0,1-1.62.94h0A1.84,1.84,0,0,1,64.2,54.42ZM.5,36.07A1.86,1.86,0,0,1,2.36,34.2h0a1.88,1.88,0,0,1,1.88,1.87h0a1.87,1.87,0,0,1-1.87,1.86h0A1.86,1.86,0,0,1,.5,36.07ZM67.76,36h0v0h0v-.1h0A1.87,1.87,0,0,1,69.62,34h0a1.88,1.88,0,0,1,1.88,1.87h0s0,0,0,.08h0s0,0,0,.07h0a1.87,1.87,0,0,1-1.87,1.86h0A1.87,1.87,0,0,1,67.76,36Zm3.74-.15h0Zm-65.61-15a1.86,1.86,0,0,1-.68-2.55h0a1.86,1.86,0,0,1,2.55-.69h0a1.87,1.87,0,0,1,.68,2.55h0a1.86,1.86,0,0,1-1.61.94h0A2,2,0,0,1,5.89,20.87ZM63.45,20h0a1.85,1.85,0,0,1,.67-2.55h0a1.86,1.86,0,0,1,2.56.66h0A1.87,1.87,0,0,1,66,20.68h0a1.83,1.83,0,0,1-1,.25h0A1.86,1.86,0,0,1,63.45,20Zm-46-12.16a1.87,1.87,0,0,1,.68-2.55h0A1.88,1.88,0,0,1,20.71,6h0A1.86,1.86,0,0,1,20,8.52h0a1.72,1.72,0,0,1-.93.26h0A1.87,1.87,0,0,1,17.48,7.85Zm34.31.58h0a1.85,1.85,0,0,1-.69-2.54h0a1.86,1.86,0,0,1,2.55-.69h0a1.88,1.88,0,0,1,.69,2.55h0a1.89,1.89,0,0,1-1.63.93h0A1.81,1.81,0,0,1,51.79,8.43ZM34,2.37A1.87,1.87,0,0,1,35.89.5h0a1.85,1.85,0,0,1,1.87,1.86h0A1.87,1.87,0,0,1,35.9,4.24h0A1.88,1.88,0,0,1,34,2.37Z"/>
  <path class="cls-1" d="M20.51,43.93V29.19H18V26.33h5.66v17.6Z"/>
  <path class="cls-1" d="M39.3,35.12c0,1.94,0,3.18-.08,3.73a5.89,5.89,0,0,1-2,3.87A6.16,6.16,0,0,1,33,44.26a6.24,6.24,0,0,1-4.24-1.54,5.81,5.81,0,0,1-2-3.87c-.05-.55-.08-1.79-.08-3.73s0-3.16.08-3.71a5.81,5.81,0,0,1,2-3.87A6.24,6.24,0,0,1,33,26a6.16,6.16,0,0,1,4.21,1.54,5.89,5.89,0,0,1,2,3.87C39.27,32,39.3,33.2,39.3,35.12Zm-3.08,0c0-1.79,0-2.91-.06-3.33a2.9,2.9,0,0,0-1.06-2.07A3,3,0,0,0,33,28.88a3.15,3.15,0,0,0-2.17.84,3,3,0,0,0-1,2.07c0,.42-.05,1.54-.05,3.33s0,3,.08,3.41a3.2,3.2,0,0,0,6.36,0C36.19,38.1,36.22,37,36.22,35.12Z"/>
  <path class="cls-1" d="M54,35.12c0,1.94,0,3.18-.08,3.73a5.92,5.92,0,0,1-2,3.87,6.58,6.58,0,0,1-8.46,0,5.85,5.85,0,0,1-2-3.87c0-.55-.08-1.79-.08-3.73s0-3.16.08-3.71a5.85,5.85,0,0,1,2-3.87,6.58,6.58,0,0,1,8.46,0,5.92,5.92,0,0,1,2,3.87C54,32,54,33.2,54,35.12Zm-3.08,0c0-1.79,0-2.91,0-3.33a3,3,0,0,0-1.06-2.07,3.06,3.06,0,0,0-2.15-.84,3.15,3.15,0,0,0-2.17.84,3,3,0,0,0-1,2.07c0,.42,0,1.54,0,3.33s0,3,.08,3.41a3.2,3.2,0,0,0,6.36,0C50.88,38.1,50.91,37,50.91,35.12Z"/>
</svg>
